<svg width="24" height="24" viewBox="0 0 24 24" fill="none" xmlns="http://www.w3.org/2000/svg">
<path fill-rule="evenodd" clip-rule="evenodd" d="M7.13889 16.124C6.065 16.124 5.19444 16.9635 5.19444 17.999C5.19444 19.0346 6.065 19.874 7.13889 19.874C8.21278 19.874 9.08333 19.0346 9.08333 17.999C9.08333 16.9635 8.21278 16.124 7.13889 16.124ZM3.25 17.999C3.25 15.928 4.99112 14.249 7.13889 14.249C8.57833 14.249 9.83511 15.0031 10.5075 16.124L13.4925 16.124C14.1649 15.0031 15.4217 14.249 16.8611 14.249C19.0089 14.249 20.75 15.928 20.75 17.999C20.75 20.0701 19.0089 21.749 16.8611 21.749C14.7133 21.749 12.9722 20.0701 12.9722 17.999L11.0278 17.999C11.0278 20.0701 9.28666 21.749 7.13889 21.749C4.99112 21.749 3.25 20.0701 3.25 17.999ZM16.8611 16.124C15.7872 16.124 14.9167 16.9635 14.9167 17.999C14.9167 19.0346 15.7872 19.874 16.8611 19.874C17.935 19.874 18.8056 19.0346 18.8056 17.999C18.8056 16.9635 17.935 16.124 16.8611 16.124Z" fill="#2B7FFF"/>
<path d="M5.31646 4.59645C5.61042 2.70968 7.67282 1.66315 9.35359 2.59225L9.96859 2.93221C11.2352 3.63236 12.7648 3.63236 14.0314 2.93221L14.6464 2.59225C16.3272 1.66315 18.3896 2.70968 18.6836 4.59644L19.7411 11.384C19.779 11.6271 19.6951 11.8734 19.5168 12.043C19.3385 12.2125 19.0883 12.2838 18.8473 12.2337C16.732 11.7939 10.9674 11.1659 5.1355 12.2371C4.8965 12.281 4.65105 12.2064 4.47691 12.0369C4.30278 11.8674 4.22154 11.6241 4.25895 11.384L5.31646 4.59645Z" fill="#2B7FFF"/>
<path fill-rule="evenodd" clip-rule="evenodd" d="M12 11.9989C8.22564 11.9989 4.89556 12.6584 2.66428 13.6566C2.18148 13.8726 1.59452 13.6972 1.35327 13.265C1.11203 12.8327 1.30785 12.3072 1.79065 12.0912C4.36081 10.9414 8.00828 10.249 12 10.249C15.9917 10.249 19.6392 10.9414 22.2093 12.0912C22.6922 12.3072 22.888 12.8327 22.6467 13.265C22.4055 13.6972 21.8185 13.8726 21.3357 13.6566C19.1044 12.6584 15.7744 11.9989 12 11.9989Z" fill="#2B7FFF"/>
</svg>
