<svg width="49" height="49" viewBox="0 0 49 49" fill="none" xmlns="http://www.w3.org/2000/svg">
<mask id="path-1-inside-1_257_16706" fill="white">
<path d="M0.294434 24.0701C0.294434 10.8152 11.0396 0.0700684 24.2944 0.0700684C37.5493 0.0700684 48.2944 10.8152 48.2944 24.0701C48.2944 37.3249 37.5493 48.0701 24.2944 48.0701C11.0396 48.0701 0.294434 37.3249 0.294434 24.0701Z"/>
</mask>
<path d="M0.294434 24.0701C0.294434 10.8152 11.0396 0.0700684 24.2944 0.0700684C37.5493 0.0700684 48.2944 10.8152 48.2944 24.0701C48.2944 37.3249 37.5493 48.0701 24.2944 48.0701C11.0396 48.0701 0.294434 37.3249 0.294434 24.0701Z" fill="#1447E6"/>
<path d="M24.2944 48.0701V47.0703C11.5917 47.0703 1.29418 36.7728 1.29418 24.0701H0.294434H-0.70531C-0.70531 37.877 10.4875 49.0698 24.2944 49.0698V48.0701ZM48.2944 24.0701H47.2947C47.2947 36.7728 36.9971 47.0703 24.2944 47.0703V48.0701V49.0698C38.1014 49.0698 49.2942 37.877 49.2942 24.0701H48.2944ZM24.2944 0.0700684V1.06981C36.9971 1.06981 47.2947 11.3674 47.2947 24.0701H48.2944H49.2942C49.2942 10.2631 38.1014 -0.929675 24.2944 -0.929675V0.0700684ZM24.2944 0.0700684V-0.929675C10.4875 -0.929675 -0.70531 10.2631 -0.70531 24.0701H0.294434H1.29418C1.29418 11.3674 11.5917 1.06981 24.2944 1.06981V0.0700684Z" fill="#155DFC" mask="url(#path-1-inside-1_257_16706)"/>
<g clip-path="url(#clip0_257_16706)">
<g clip-path="url(#clip1_257_16706)">
<path d="M24.2944 14.0701C21.6744 14.0701 19.5444 16.2001 19.5444 18.8201C19.5444 21.3901 21.5544 23.4701 24.1744 23.5601C24.2544 23.5501 24.3344 23.5501 24.3944 23.5601C24.4144 23.5601 24.4244 23.5601 24.4444 23.5601C24.4544 23.5601 24.4544 23.5601 24.4644 23.5601C27.0244 23.4701 29.0344 21.3901 29.0444 18.8201C29.0444 16.2001 26.9144 14.0701 24.2944 14.0701Z" fill="white"/>
<path d="M29.3753 26.2307C26.5853 24.3707 22.0354 24.3707 19.2254 26.2307C17.9554 27.0707 17.2554 28.2207 17.2554 29.4507C17.2554 30.6807 17.9554 31.8207 19.2154 32.6607C20.6154 33.6007 22.4553 34.0707 24.2953 34.0707C26.1353 34.0707 27.9753 33.6007 29.3753 32.6607C30.6353 31.8107 31.3353 30.6707 31.3353 29.4307C31.3253 28.2107 30.6353 27.0607 29.3753 26.2307ZM26.6253 28.6307L24.1053 31.1507C23.9853 31.2707 23.8253 31.3307 23.6653 31.3307C23.5053 31.3307 23.3453 31.2607 23.2253 31.1507L21.9654 29.8907C21.7254 29.6507 21.7254 29.2507 21.9654 29.0107C22.2054 28.7707 22.6053 28.7707 22.8453 29.0107L23.6653 29.8307L25.7453 27.7507C25.9853 27.5107 26.3853 27.5107 26.6253 27.7507C26.8753 27.9907 26.8753 28.3907 26.6253 28.6307Z" fill="white"/>
</g>
</g>
<defs>
<clipPath id="clip0_257_16706">
<rect width="24" height="24" fill="white" transform="translate(12.2944 12.0701)"/>
</clipPath>
<clipPath id="clip1_257_16706">
<rect width="24" height="24" fill="white" transform="translate(12.2944 12.0701)"/>
</clipPath>
</defs>
</svg>
