<svg width="48" height="48" viewBox="0 0 48 48" fill="none" xmlns="http://www.w3.org/2000/svg">
<mask id="path-1-inside-1_2151_20128" fill="white">
<path d="M0 24C0 10.7452 10.7452 0 24 0C37.2548 0 48 10.7452 48 24C48 37.2548 37.2548 48 24 48C10.7452 48 0 37.2548 0 24Z"/>
</mask>
<path d="M0 24C0 10.7452 10.7452 0 24 0C37.2548 0 48 10.7452 48 24C48 37.2548 37.2548 48 24 48C10.7452 48 0 37.2548 0 24Z" fill="#1447E6"/>
<path d="M24 48V47.0003C11.2973 47.0003 0.999744 36.7027 0.999744 24H0H-0.999744C-0.999744 37.807 10.193 48.9997 24 48.9997V48ZM48 24H47.0003C47.0003 36.7027 36.7027 47.0003 24 47.0003V48V48.9997C37.807 48.9997 48.9997 37.807 48.9997 24H48ZM24 0V0.999744C36.7027 0.999744 47.0003 11.2973 47.0003 24H48H48.9997C48.9997 10.193 37.807 -0.999744 24 -0.999744V0ZM24 0V-0.999744C10.193 -0.999744 -0.999744 10.193 -0.999744 24H0H0.999744C0.999744 11.2973 11.2973 0.999744 24 0.999744V0Z" fill="#155DFC" mask="url(#path-1-inside-1_2151_20128)"/>
<path d="M24 14C21.38 14 19.25 16.13 19.25 18.75C19.25 21.32 21.26 23.4 23.88 23.49C23.96 23.48 24.04 23.48 24.1 23.49C24.12 23.49 24.13 23.49 24.15 23.49C24.16 23.49 24.16 23.49 24.17 23.49C26.73 23.4 28.74 21.32 28.75 18.75C28.75 16.13 26.62 14 24 14Z" fill="white"/>
<path d="M29.0809 26.1509C26.2909 24.2909 21.7409 24.2909 18.9309 26.1509C17.6609 27.0009 16.9609 28.1509 16.9609 29.3809C16.9609 30.6109 17.6609 31.7509 18.9209 32.5909C20.3209 33.5309 22.1609 34.0009 24.0009 34.0009C25.8409 34.0009 27.6809 33.5309 29.0809 32.5909C30.3409 31.7409 31.0409 30.6009 31.0409 29.3609C31.0309 28.1309 30.3409 26.9909 29.0809 26.1509ZM26.0009 30.1309H24.7509V31.3809C24.7509 31.7909 24.4109 32.1309 24.0009 32.1309C23.5909 32.1309 23.2509 31.7909 23.2509 31.3809V30.1309H22.0009C21.5909 30.1309 21.2509 29.7909 21.2509 29.3809C21.2509 28.9709 21.5909 28.6309 22.0009 28.6309H23.2509V27.3809C23.2509 26.9709 23.5909 26.6309 24.0009 26.6309C24.4109 26.6309 24.7509 26.9709 24.7509 27.3809V28.6309H26.0009C26.4109 28.6309 26.7509 28.9709 26.7509 29.3809C26.7509 29.7909 26.4109 30.1309 26.0009 30.1309Z" fill="white"/>
</svg>
