<svg width="49" height="49" viewBox="0 0 49 49" fill="none" xmlns="http://www.w3.org/2000/svg">
<mask id="path-1-inside-1_257_16740" fill="white">
<path d="M0.365723 24.0701C0.365723 10.8152 11.1109 0.0700684 24.3657 0.0700684C37.6206 0.0700684 48.3657 10.8152 48.3657 24.0701C48.3657 37.3249 37.6206 48.0701 24.3657 48.0701C11.1109 48.0701 0.365723 37.3249 0.365723 24.0701Z"/>
</mask>
<path d="M0.365723 24.0701C0.365723 10.8152 11.1109 0.0700684 24.3657 0.0700684C37.6206 0.0700684 48.3657 10.8152 48.3657 24.0701C48.3657 37.3249 37.6206 48.0701 24.3657 48.0701C11.1109 48.0701 0.365723 37.3249 0.365723 24.0701Z" fill="#1447E6"/>
<path d="M24.3657 48.0701V47.0703C11.663 47.0703 1.36547 36.7728 1.36547 24.0701H0.365723H-0.634021C-0.634021 37.877 10.5587 49.0698 24.3657 49.0698V48.0701ZM48.3657 24.0701H47.366C47.366 36.7728 37.0684 47.0703 24.3657 47.0703V48.0701V49.0698C38.1727 49.0698 49.3655 37.877 49.3655 24.0701H48.3657ZM24.3657 0.0700684V1.06981C37.0684 1.06981 47.366 11.3674 47.366 24.0701H48.3657H49.3655C49.3655 10.2631 38.1727 -0.929675 24.3657 -0.929675V0.0700684ZM24.3657 0.0700684V-0.929675C10.5587 -0.929675 -0.634021 10.2631 -0.634021 24.0701H0.365723H1.36547C1.36547 11.3674 11.663 1.06981 24.3657 1.06981V0.0700684Z" fill="#155DFC" mask="url(#path-1-inside-1_257_16740)"/>
<g clip-path="url(#clip0_257_16740)">
<g clip-path="url(#clip1_257_16740)">
<path d="M21.3657 14.0701C18.7457 14.0701 16.6157 16.2001 16.6157 18.8201C16.6157 21.3901 18.6257 23.4701 21.2457 23.5601C21.3257 23.5501 21.4057 23.5501 21.4657 23.5601C21.4857 23.5601 21.4957 23.5601 21.5157 23.5601C21.5257 23.5601 21.5257 23.5601 21.5357 23.5601C24.0957 23.4701 26.1057 21.3901 26.1157 18.8201C26.1157 16.2001 23.9857 14.0701 21.3657 14.0701Z" fill="white"/>
<path d="M26.4466 26.2209C23.6566 24.3609 19.1067 24.3609 16.2967 26.2209C15.0267 27.0709 14.3267 28.2209 14.3267 29.4509C14.3267 30.6809 15.0267 31.8209 16.2867 32.6609C17.6867 33.6009 19.5267 34.0709 21.3667 34.0709C23.2066 34.0709 25.0466 33.6009 26.4466 32.6609C27.7066 31.8109 28.4066 30.6709 28.4066 29.4309C28.3966 28.2009 27.7066 27.0609 26.4466 26.2209Z" fill="white"/>
<path d="M32.3551 19.4102C32.5151 21.3502 31.1351 23.0502 29.2251 23.2802C29.2151 23.2802 29.2151 23.2802 29.2051 23.2802H29.1751C29.1151 23.2802 29.0551 23.2802 29.0051 23.3002C28.0351 23.3502 27.1451 23.0402 26.4751 22.4702C27.5051 21.5502 28.0951 20.1702 27.9751 18.6702C27.9051 17.8602 27.6251 17.1202 27.2051 16.4902C27.5851 16.3002 28.0251 16.1802 28.4751 16.1402C30.4351 15.9702 32.1851 17.4302 32.3551 19.4102Z" fill="white"/>
<path d="M34.354 28.6605C34.274 29.6305 33.654 30.4705 32.614 31.0405C31.614 31.5905 30.354 31.8505 29.104 31.8205C29.824 31.1705 30.244 30.3605 30.324 29.5005C30.424 28.2605 29.834 27.0705 28.654 26.1205C27.984 25.5905 27.204 25.1705 26.354 24.8605C28.564 24.2205 31.344 24.6505 33.054 26.0305C33.974 26.7705 34.444 27.7005 34.354 28.6605Z" fill="white"/>
</g>
</g>
<defs>
<clipPath id="clip0_257_16740">
<rect width="24" height="24" fill="white" transform="translate(12.3657 12.0701)"/>
</clipPath>
<clipPath id="clip1_257_16740">
<rect width="24" height="24" fill="white" transform="translate(12.3657 12.0701)"/>
</clipPath>
</defs>
</svg>
