<svg width="48" height="48" viewBox="0 0 48 48" fill="none" xmlns="http://www.w3.org/2000/svg">
<mask id="path-1-inside-1_2151_15589" fill="white">
<path d="M0 24C0 10.7452 10.7452 0 24 0C37.2548 0 48 10.7452 48 24C48 37.2548 37.2548 48 24 48C10.7452 48 0 37.2548 0 24Z"/>
</mask>
<path d="M0 24C0 10.7452 10.7452 0 24 0C37.2548 0 48 10.7452 48 24C48 37.2548 37.2548 48 24 48C10.7452 48 0 37.2548 0 24Z" fill="#1447E6"/>
<path d="M24 48V47.0003C11.2973 47.0003 0.999744 36.7027 0.999744 24H0H-0.999744C-0.999744 37.807 10.193 48.9997 24 48.9997V48ZM48 24H47.0003C47.0003 36.7027 36.7027 47.0003 24 47.0003V48V48.9997C37.807 48.9997 48.9997 37.807 48.9997 24H48ZM24 0V0.999744C36.7027 0.999744 47.0003 11.2973 47.0003 24H48H48.9997C48.9997 10.193 37.807 -0.999744 24 -0.999744V0ZM24 0V-0.999744C10.193 -0.999744 -0.999744 10.193 -0.999744 24H0H0.999744C0.999744 11.2973 11.2973 0.999744 24 0.999744V0Z" fill="#155DFC" mask="url(#path-1-inside-1_2151_15589)"/>
<path d="M17.0127 24.6377C17.2232 24.6377 17.4308 24.6906 17.6152 24.792L20.624 26.4473C20.7348 26.5082 20.8599 26.54 20.9863 26.54H22.3691C22.7082 26.54 23.0198 26.5917 23.3008 26.6807C23.6039 26.7526 24.1823 27.0246 24.4316 27.3672C24.557 27.4938 24.6659 27.6287 24.7559 27.7666C24.9083 28.001 24.7653 28.2941 24.5 28.3828L21.7568 29.2969C21.7055 29.314 21.6499 29.314 21.5986 29.2969L17.7637 28.0186C17.3708 27.8878 16.9464 28.1003 16.8154 28.4932C16.6845 28.8861 16.8971 29.3104 17.29 29.4414L21.124 30.7197C21.4832 30.8395 21.8722 30.8395 22.2314 30.7197L26.0654 29.4414C26.3716 29.3394 26.578 29.0532 26.5781 28.7305C26.5781 28.6874 26.5772 28.6437 26.5752 28.6006C26.5718 28.5234 26.6101 28.4493 26.6768 28.4102L28.9102 27.0996C29.769 26.67 30.5696 26.9686 30.9805 27.5137C31.0427 27.6229 31.0985 27.7376 31.1465 27.8574C31.4606 28.643 31.12 29.5386 30.3633 29.917L22.7783 33.709C22.1652 34.0155 21.4594 34.082 20.7998 33.8955L15.2734 32.333C14.52 32.1198 14 31.4314 14 30.6484V26.3848C14.0002 25.4508 14.7319 24.6879 15.6533 24.6377H17.0127ZM25.75 12.6348C30.0302 12.6348 33.5 16.1046 33.5 20.3848C33.5 22.0303 32.9861 23.5579 32.1104 24.8135C31.852 25.1839 31.5747 25.5173 31.2822 25.8145C30.4322 25.3139 29.317 25.2066 28.209 25.7734C28.1963 25.78 28.1832 25.7867 28.1709 25.7939L26.0674 27.0283C25.3732 25.906 24.0263 25.04 22.3691 25.04H21.1787L18.7432 23.7002C18.2664 22.6941 18 21.5695 18 20.3848C18 16.1046 21.4698 12.6348 25.75 12.6348ZM25.75 15.6348C25.3358 15.6348 25 15.9706 25 16.3848V16.6348H23.25C22.8358 16.6348 22.5 16.9706 22.5 17.3848C22.5 17.799 22.8358 18.1348 23.25 18.1348H23.5V22.6348H23.25C22.8358 22.6348 22.5 22.9706 22.5 23.3848C22.5 23.799 22.8358 24.1348 23.25 24.1348L25 24.1348V24.3848C25 24.799 25.3358 25.1348 25.75 25.1348C26.1642 25.1348 26.5 24.799 26.5 24.3848V24.1348H26.75C27.9926 24.1348 29 23.1274 29 21.8848C29 21.3085 28.783 20.7828 28.4268 20.3848C28.783 19.9867 29 19.461 29 18.8848C29 17.6421 27.9926 16.6348 26.75 16.6348H26.5V16.3848C26.5 15.9706 26.1642 15.6348 25.75 15.6348ZM26.75 21.1348C27.1642 21.1348 27.5 21.4706 27.5 21.8848C27.5 22.299 27.1642 22.6348 26.75 22.6348H25V21.1348H26.75ZM26.75 18.1348C27.1642 18.1348 27.5 18.4706 27.5 18.8848C27.5 19.299 27.1642 19.6348 26.75 19.6348H25V18.1348H26.75Z" fill="white"/>
</svg>
