<svg width="48" height="48" viewBox="0 0 48 48" fill="none" xmlns="http://www.w3.org/2000/svg">
<mask id="path-1-inside-1_2151_23042" fill="white">
<path d="M0 24C0 10.7452 10.7452 0 24 0C37.2548 0 48 10.7452 48 24C48 37.2548 37.2548 48 24 48C10.7452 48 0 37.2548 0 24Z"/>
</mask>
<path d="M0 24C0 10.7452 10.7452 0 24 0C37.2548 0 48 10.7452 48 24C48 37.2548 37.2548 48 24 48C10.7452 48 0 37.2548 0 24Z" fill="#1447E6"/>
<path d="M24 48V47.0003C11.2973 47.0003 0.999744 36.7027 0.999744 24H0H-0.999744C-0.999744 37.807 10.193 48.9997 24 48.9997V48ZM48 24H47.0003C47.0003 36.7027 36.7027 47.0003 24 47.0003V48V48.9997C37.807 48.9997 48.9997 37.807 48.9997 24H48ZM24 0V0.999744C36.7027 0.999744 47.0003 11.2973 47.0003 24H48H48.9997C48.9997 10.193 37.807 -0.999744 24 -0.999744V0ZM24 0V-0.999744C10.193 -0.999744 -0.999744 10.193 -0.999744 24H0H0.999744C0.999744 11.2973 11.2973 0.999744 24 0.999744V0Z" fill="#155DFC" mask="url(#path-1-inside-1_2151_23042)"/>
<path d="M34 31V34H14V31C14 30.45 14.45 30 15 30H33C33.55 30 34 30.45 34 31Z" fill="white" stroke="white" stroke-width="1.5" stroke-miterlimit="10" stroke-linecap="round" stroke-linejoin="round"/>
<path d="M19 23H17V30H19V23Z" fill="white"/>
<path d="M23 23H21V30H23V23Z" fill="white"/>
<path d="M27 23H25V30H27V23Z" fill="white"/>
<path d="M31 23H29V30H31V23Z" fill="white"/>
<path d="M35 34.75H13C12.59 34.75 12.25 34.41 12.25 34C12.25 33.59 12.59 33.25 13 33.25H35C35.41 33.25 35.75 33.59 35.75 34C35.75 34.41 35.41 34.75 35 34.75Z" fill="white"/>
<path d="M33.37 17.7498L24.37 14.1498C24.17 14.0698 23.83 14.0698 23.63 14.1498L14.63 17.7498C14.28 17.8898 14 18.2998 14 18.6798V21.9998C14 22.5498 14.45 22.9998 15 22.9998H33C33.55 22.9998 34 22.5498 34 21.9998V18.6798C34 18.2998 33.72 17.8898 33.37 17.7498ZM24 20.4998C23.17 20.4998 22.5 19.8298 22.5 18.9998C22.5 18.1698 23.17 17.4998 24 17.4998C24.83 17.4998 25.5 18.1698 25.5 18.9998C25.5 19.8298 24.83 20.4998 24 20.4998Z" fill="white"/>
</svg>
