<svg width="48" height="48" viewBox="0 0 48 48" fill="none" xmlns="http://www.w3.org/2000/svg">
<mask id="path-1-inside-1_2151_14877" fill="white">
<path d="M0 24C0 10.7452 10.7452 0 24 0C37.2548 0 48 10.7452 48 24C48 37.2548 37.2548 48 24 48C10.7452 48 0 37.2548 0 24Z"/>
</mask>
<path d="M0 24C0 10.7452 10.7452 0 24 0C37.2548 0 48 10.7452 48 24C48 37.2548 37.2548 48 24 48C10.7452 48 0 37.2548 0 24Z" fill="#1447E6"/>
<path d="M24 48V47.0003C11.2973 47.0003 0.999744 36.7027 0.999744 24H0H-0.999744C-0.999744 37.807 10.193 48.9997 24 48.9997V48ZM48 24H47.0003C47.0003 36.7027 36.7027 47.0003 24 47.0003V48V48.9997C37.807 48.9997 48.9997 37.807 48.9997 24H48ZM24 0V0.999744C36.7027 0.999744 47.0003 11.2973 47.0003 24H48H48.9997C48.9997 10.193 37.807 -0.999744 24 -0.999744V0ZM24 0V-0.999744C10.193 -0.999744 -0.999744 10.193 -0.999744 24H0H0.999744C0.999744 11.2973 11.2973 0.999744 24 0.999744V0Z" fill="#155DFC" mask="url(#path-1-inside-1_2151_14877)"/>
<path fill-rule="evenodd" clip-rule="evenodd" d="M14.0078 14.9639C14.5601 14.9639 15.0078 15.4116 15.0078 15.9639V19.7355C15.022 19.75 15.0424 19.769 15.0709 19.7923C15.2236 19.9172 15.5055 20.0748 15.9434 20.2279C16.8095 20.5308 18.0741 20.7432 19.5296 20.763C20.0818 20.7705 20.5234 21.2242 20.5159 21.7764C20.5084 22.3287 20.0547 22.7703 19.5024 22.7628C17.8949 22.741 16.4054 22.5082 15.2832 22.1158C15.1903 22.0833 15.0984 22.0492 15.0078 22.0134V23.6021C15.0093 23.6036 15.0109 23.6052 15.0125 23.6069C15.0891 23.684 15.2518 23.8026 15.5403 23.9344C16.1131 24.1961 16.9891 24.4228 18.0744 24.5422C18.6233 24.6026 19.0194 25.0966 18.9589 25.6456C18.8985 26.1946 18.4045 26.5906 17.8555 26.5302C16.6434 26.3968 15.5408 26.1334 14.7094 25.7536C14.2958 25.5647 13.9 25.3248 13.5936 25.0163C13.2835 24.7042 13.0078 24.259 13.0078 23.698V15.9639C13.0078 15.4116 13.4555 14.9639 14.0078 14.9639ZM14.9788 23.5685L14.9796 23.5696L14.9788 23.5685ZM25.4946 14.9639C26.0469 14.9639 26.4946 15.4116 26.4946 15.9639V18.978C26.4946 19.5303 26.0469 19.978 25.4946 19.978C24.9423 19.978 24.4946 19.5303 24.4946 18.978V15.9639C24.4946 15.4116 24.9423 14.9639 25.4946 14.9639Z" fill="white"/>
<path d="M27.25 20C31.2541 20 34.5 23.2459 34.5 27.25C34.5 31.2541 31.2541 34.5 27.25 34.5C23.2459 34.5 20 31.2541 20 27.25C20 23.2459 23.2459 20 27.25 20ZM27.251 23C26.8369 22.9997 26.5005 23.335 26.5 23.749V24H25.25C24.8358 24 24.5 24.3358 24.5 24.75C24.5 25.1642 24.8358 25.5 25.25 25.5H25.499V29H25.25C24.8358 29 24.5 29.3358 24.5 29.75C24.5 30.1642 24.8358 30.5 25.25 30.5H26.5V30.75C26.5 31.1642 26.8358 31.5 27.25 31.5C27.6642 31.5 28 31.1642 28 30.75V30.5C29.1046 30.5 30 29.6046 30 28.5C30 28.0271 29.836 27.5924 29.5615 27.25C29.836 26.9076 30 26.4729 30 26C30 24.8955 29.1045 24.0001 28 24V23.751C28.0003 23.3369 27.665 23.0005 27.251 23ZM28 28C28.2761 28 28.5 28.2239 28.5 28.5C28.5 28.7761 28.2761 29 28 29H26.999V28H28ZM28 25.5C28.2761 25.5 28.5 25.7239 28.5 26C28.5 26.2761 28.2761 26.5 28 26.5H26.999V25.5H28ZM19.75 13C21.4649 13 23.0486 13.2304 24.2295 13.624C24.8161 13.8195 25.3456 14.0695 25.7432 14.3828C26.1321 14.6895 26.5 15.1458 26.5 15.75C26.5 16.3542 26.1321 16.8105 25.7432 17.1172C25.3456 17.4305 24.8161 17.6805 24.2295 17.876C23.0486 18.2696 21.4649 18.5 19.75 18.5C18.0351 18.5 16.4514 18.2696 15.2705 17.876C14.6839 17.6805 14.1544 17.4305 13.7568 17.1172C13.3679 16.8105 13 16.3542 13 15.75C13 15.1458 13.3679 14.6895 13.7568 14.3828C14.1544 14.0695 14.6839 13.8195 15.2705 13.624C16.4514 13.2304 18.0351 13 19.75 13Z" fill="white"/>
</svg>
