<svg width="49" height="49" viewBox="0 0 49 49" fill="none" xmlns="http://www.w3.org/2000/svg">
<mask id="path-1-inside-1_257_16717" fill="white">
<path d="M0.294434 24.0701C0.294434 10.8152 11.0396 0.0700684 24.2944 0.0700684C37.5493 0.0700684 48.2944 10.8152 48.2944 24.0701C48.2944 37.3249 37.5493 48.0701 24.2944 48.0701C11.0396 48.0701 0.294434 37.3249 0.294434 24.0701Z"/>
</mask>
<path d="M0.294434 24.0701C0.294434 10.8152 11.0396 0.0700684 24.2944 0.0700684C37.5493 0.0700684 48.2944 10.8152 48.2944 24.0701C48.2944 37.3249 37.5493 48.0701 24.2944 48.0701C11.0396 48.0701 0.294434 37.3249 0.294434 24.0701Z" fill="#1447E6"/>
<path d="M24.2944 48.0701V47.0703C11.5917 47.0703 1.29418 36.7728 1.29418 24.0701H0.294434H-0.70531C-0.70531 37.877 10.4875 49.0698 24.2944 49.0698V48.0701ZM48.2944 24.0701H47.2947C47.2947 36.7728 36.9971 47.0703 24.2944 47.0703V48.0701V49.0698C38.1014 49.0698 49.2942 37.877 49.2942 24.0701H48.2944ZM24.2944 0.0700684V1.06981C36.9971 1.06981 47.2947 11.3674 47.2947 24.0701H48.2944H49.2942C49.2942 10.2631 38.1014 -0.929675 24.2944 -0.929675V0.0700684ZM24.2944 0.0700684V-0.929675C10.4875 -0.929675 -0.70531 10.2631 -0.70531 24.0701H0.294434H1.29418C1.29418 11.3674 11.5917 1.06981 24.2944 1.06981V0.0700684Z" fill="#155DFC" mask="url(#path-1-inside-1_257_16717)"/>
<g clip-path="url(#clip0_257_16717)">
<g clip-path="url(#clip1_257_16717)">
<path d="M29.2944 15.5701H19.2944C16.2944 15.5701 14.2944 17.0701 14.2944 20.5701V27.5701C14.2944 31.0701 16.2944 32.5701 19.2944 32.5701H29.2944C32.2944 32.5701 34.2944 31.0701 34.2944 27.5701V20.5701C34.2944 17.0701 32.2944 15.5701 29.2944 15.5701ZM18.5444 26.5701C18.5444 26.9801 18.2044 27.3201 17.7944 27.3201C17.3844 27.3201 17.0444 26.9801 17.0444 26.5701V21.5701C17.0444 21.1601 17.3844 20.8201 17.7944 20.8201C18.2044 20.8201 18.5444 21.1601 18.5444 21.5701V26.5701ZM24.2944 27.0701C22.6344 27.0701 21.2944 25.7301 21.2944 24.0701C21.2944 22.4101 22.6344 21.0701 24.2944 21.0701C25.9544 21.0701 27.2944 22.4101 27.2944 24.0701C27.2944 25.7301 25.9544 27.0701 24.2944 27.0701ZM31.5444 26.5701C31.5444 26.9801 31.2044 27.3201 30.7944 27.3201C30.3844 27.3201 30.0444 26.9801 30.0444 26.5701V21.5701C30.0444 21.1601 30.3844 20.8201 30.7944 20.8201C31.2044 20.8201 31.5444 21.1601 31.5444 21.5701V26.5701Z" fill="white"/>
</g>
</g>
<defs>
<clipPath id="clip0_257_16717">
<rect width="24" height="24" fill="white" transform="translate(12.2944 12.0701)"/>
</clipPath>
<clipPath id="clip1_257_16717">
<rect width="24" height="24" fill="white" transform="translate(12.2944 12.0701)"/>
</clipPath>
</defs>
</svg>
