<svg width="88" height="88" viewBox="0 0 88 88" fill="none" xmlns="http://www.w3.org/2000/svg">
<path d="M39.3779 4.903C41.9877 2.37877 46.129 2.37877 48.7388 4.903V4.903C50.5917 6.69514 53.3052 7.27192 55.7268 6.38835V6.38835C59.1376 5.14383 62.9209 6.82825 64.2783 10.1957V10.1957C65.2421 12.5866 67.4864 14.2172 70.0581 14.3949V14.3949C73.6802 14.6453 76.4513 17.7229 76.3217 21.3514V21.3514C76.2297 23.9275 77.6167 26.33 79.8937 27.5384V27.5384C83.1009 29.2404 84.3806 33.179 82.7864 36.4411V36.4411C81.6545 38.7571 81.9445 41.516 83.5332 43.5461V43.5461C85.7708 46.4054 85.3379 50.524 82.5547 52.8556V52.8556C80.5787 54.511 79.7214 57.1494 80.347 59.6501V59.6501C81.2282 63.1723 79.1575 66.7588 75.6666 67.7568V67.7568C73.1881 68.4654 71.3319 70.527 70.8863 73.0659V73.0659C70.2586 76.642 66.9082 79.0762 63.3132 78.5681V78.5681C60.7608 78.2073 58.2265 79.3356 56.7867 81.4738V81.4738C54.7588 84.4855 50.708 85.3466 47.6304 83.4201V83.4201C45.4454 82.0523 42.6713 82.0523 40.4863 83.4201V83.4201C37.4088 85.3466 33.358 84.4855 31.33 81.4738V81.4738C29.8903 79.3356 27.3559 78.2073 24.8036 78.5681V78.5681C21.2085 79.0762 17.8581 76.642 17.2305 73.0659V73.0659C16.7849 70.527 14.9286 68.4654 12.4501 67.7568V67.7568C8.9592 66.7588 6.88854 63.1723 7.76971 59.6501V59.6501C8.39532 57.1494 7.53806 54.511 5.56206 52.8556V52.8556C2.77886 50.524 2.34597 46.4054 4.58359 43.5461V43.5461C6.17223 41.516 6.46221 38.7571 5.33035 36.4411V36.4411C3.73612 33.179 5.01586 29.2404 8.22301 27.5384V27.5384C10.5 26.33 11.8871 23.9275 11.7951 21.3514V21.3514C11.6655 17.7229 14.4365 14.6453 18.0587 14.3949V14.3949C20.6303 14.2172 22.8747 12.5866 23.8384 10.1957V10.1957C25.1958 6.82825 28.9791 5.14383 32.39 6.38835V6.38835C34.8116 7.27192 37.5251 6.69514 39.3779 4.903V4.903Z" fill="#47EBA1"/>
<path d="M26.4341 43.5732L37.1494 56.313C37.7541 57.032 38.8272 57.1246 39.5462 56.5198L66.8477 33.5568" stroke="#079253" stroke-width="6.8046"/>
</svg>
