;<svg width="16" height="17" viewBox="0 0 16 17" fill="none" xmlns="http://www.w3.org/2000/svg">
  <path
    d="M15.0615 9.81775H9.97363C9.31701 8.87477 8.93457 7.75474 8.93457 6.55212C8.93477 3.34799 11.6372 0.725491 15.0615 0.501343V9.81775Z"
    fill="#2F88FC"
  />
  <path
    d="M15.0604 9.81812H10.4061C9.805 9.08401 9.45496 8.21244 9.45496 7.27612C9.45508 4.78234 11.9274 2.74109 15.0604 2.56616V9.81812Z"
    fill="#2F7BEF"
  />
  <path
    d="M15.0602 9.96228H10.7408C10.1833 9.43597 9.85915 8.81125 9.85901 8.14001C9.85901 6.35155 12.1531 4.88749 15.0602 4.76208V9.96228Z"
    fill="#2F6FE3"
  />
  <path
    d="M14.6473 9.3167C14.9093 9.47318 15.0744 9.75314 15.049 10.0572C14.7657 13.4494 11.6045 16.5 8.00625 16.5C4.2345 16.5 1.23626 13.6767 1.04923 9.98978C0.866366 6.38485 0.931358 4.31567 1.00187 2.43735C1.00505 2.35245 1.01988 2.26815 1.05177 2.18941C1.1535 1.93813 1.27952 1.75578 1.47449 1.63679C1.64053 1.53546 1.84673 1.56414 2.02249 1.64748C5.28231 3.19308 11.7988 7.61511 14.6473 9.3167Z"
    fill="#003280"
  />
</svg>
