<svg width="107" height="28" viewBox="0 0 107 28" fill="none" xmlns="http://www.w3.org/2000/svg">
<path d="M18.508 17.5L20.3 21H16.38L14.588 17.5L10.304 9.1L6.02 17.5L4.228 21H0.308L2.1 17.5L10.304 1.4L18.508 17.5ZM27.4116 17.5L37.6876 17.528V21.028H27.7476C26.7676 21.028 25.8436 20.804 25.0036 20.384C23.7716 19.768 22.7636 18.76 22.1756 17.528C21.7556 16.688 21.5316 15.764 21.5316 14.784V1.428H25.0316V15.12C25.1996 16.352 26.1796 17.332 27.4116 17.5ZM35.5381 1.428H55.1101V4.928H47.0741V21.028H43.5741V4.928H35.5381V1.428ZM61.7127 21H58.2127V1.4H61.7127V21ZM80.8817 4.088L84.3817 1.4V21H80.8817V8.512L77.4377 11.144L74.5817 13.356L71.7257 11.144L68.2817 8.512V21H64.7817V1.4L68.2817 4.088L74.5817 8.932L80.8817 4.088ZM104.564 17.5L106.356 21H102.436L100.644 17.5L96.3603 9.1L92.0763 17.5L90.2843 21H86.3643L88.1563 17.5L96.3603 1.4L104.564 17.5Z" fill="white"/>
</svg>
