<svg width="155" height="37" viewBox="0 0 155 37" fill="none" xmlns="http://www.w3.org/2000/svg">
<path d="M9.07564 37.0003L8.12895 36.2611C8.00842 36.1668 5.14825 33.9087 2.8468 29.9521C1.48703 27.6136 0.603117 25.1619 0.220171 22.6637C-0.260709 19.5344 0.0469032 16.3372 1.13547 13.1614C1.27233 12.7603 1.61008 12.4623 2.02316 12.3743C2.43749 12.2863 2.86564 12.4233 3.15316 12.7326C3.17953 12.7603 5.79235 15.5703 9.16479 18.5211C13.5304 22.3394 17.1652 24.6603 19.6751 25.2323L20.8478 25.5001L20.3142 27.8487L19.1415 27.5809C16.1997 26.9095 12.3049 24.4667 7.56646 20.3202C5.63289 18.6279 3.96676 17.0073 2.85434 15.8858C2.36341 18.0244 2.27427 20.1568 2.58941 22.2476C2.91963 24.4377 3.69054 26.5977 4.88333 28.6672C6.94496 32.2479 9.58289 34.3425 9.60926 34.3626L10.5534 35.1044L9.07564 36.9991V37.0003Z" fill="#C39852"/>
<path d="M11.6472 17.8371L9.88309 16.2002L10.7005 15.3176C12.752 13.1023 16.8113 10.9461 22.7677 8.91057C25.1984 8.07952 27.4321 7.44586 28.9588 7.04102C27.3555 5.54739 25.555 4.40328 23.5888 3.63006C21.5297 2.82164 19.2759 2.41052 16.8891 2.40926H16.8803C12.7571 2.40926 9.63072 3.64766 9.60059 3.66024L8.48691 4.10782L7.58667 1.8787L8.6991 1.42734C8.84223 1.36825 12.2247 0.0166889 16.7975 0.000344484C19.4994 -0.00971362 22.062 0.450445 24.4137 1.36573C27.3605 2.51361 29.9721 4.37939 32.1743 6.91026C32.4518 7.22961 32.5422 7.67091 32.4116 8.07449C32.281 8.47681 31.9483 8.78107 31.5365 8.87536C31.4988 8.88416 27.7623 9.74539 23.5248 11.195C18.0392 13.0721 14.2148 15.0636 12.4658 16.9533L11.6484 17.8359L11.6472 17.8371Z" fill="#C39852"/>
<path d="M21.8298 36.9764C21.492 36.9764 21.1656 36.8344 20.9358 36.5779C20.6533 36.2636 20.5566 35.8223 20.6809 35.4187C20.6922 35.3822 21.816 31.711 22.681 27.3106C23.801 21.6152 23.9906 17.3028 23.231 14.8398L22.8757 13.6894L25.1733 12.9791L25.5287 14.1295C26.4188 17.0161 26.2544 21.6152 25.0365 27.7972C24.5393 30.3205 23.9718 32.5748 23.5574 34.1011C25.6517 33.4574 27.5401 32.4692 29.1924 31.1503C30.9213 29.7698 32.4041 28.0197 33.5981 25.9515C35.6635 22.3733 36.157 19.0391 36.1607 19.0051L36.3302 17.8145L38.7083 18.1489L38.5425 19.3396C38.5212 19.4917 37.9989 23.1013 35.7276 27.0742C34.3854 29.4216 32.7067 31.4143 30.738 32.996C28.2721 34.9774 25.3529 36.3101 22.0621 36.9538C21.9855 36.9689 21.9076 36.9764 21.831 36.9764H21.8298Z" fill="#C39852"/>
<path d="M18.456 23.0573C18.2049 23.0573 17.9789 22.9001 17.8922 22.6637L17.2632 20.9601C17.1339 20.6094 16.8577 20.3328 16.5074 20.2033L14.8061 19.5734C14.57 19.4854 14.4131 19.2603 14.4131 19.0089C14.4131 18.7574 14.57 18.5311 14.8061 18.4444L16.5074 17.8145C16.8577 17.685 17.1339 17.4084 17.2632 17.0576L17.8922 15.354C17.9801 15.1176 18.2049 14.9605 18.456 14.9605C18.7071 14.9605 18.9331 15.1176 19.0197 15.354L19.6488 17.0576C19.7781 17.4084 20.0543 17.685 20.4046 17.8145L22.1059 18.4444C22.342 18.5324 22.4989 18.7574 22.4989 19.0089C22.4989 19.2603 22.342 19.4866 22.1059 19.5734L20.4046 20.2033C20.0543 20.3328 19.7781 20.6094 19.6488 20.9601L19.0197 22.6637C18.9319 22.9001 18.7071 23.0573 18.456 23.0573ZM16.7472 19.0089L16.9242 19.0742C17.6047 19.327 18.1396 19.8613 18.3907 20.5427L18.456 20.72L18.5213 20.5427C18.7736 19.8613 19.3073 19.3257 19.9878 19.0742L20.1648 19.0089L19.9878 18.9435C19.3073 18.6908 18.7724 18.1564 18.5213 17.475L18.456 17.2977L18.3907 17.475C18.1396 18.1564 17.6047 18.692 16.9242 18.9435L16.7472 19.0089Z" fill="black"/>
<path d="M55.8545 25.0001H47.2811V12.2068H55.4154C58.1841 12.2068 59.5589 13.2951 59.5589 15.3001C59.5589 16.9422 58.6996 18.107 56.3701 18.2024V18.3934C58.9287 18.4889 60.1508 19.6727 60.1508 21.4485C60.1508 23.6062 58.9097 25.0001 55.8545 25.0001ZM50.8518 15.4337V17.0568H55.0335C55.7591 17.0568 55.9691 16.8467 55.9691 16.2548C55.9691 15.6629 55.6827 15.4337 54.938 15.4337H50.8518ZM50.8518 19.9973V21.7731H55.3963C56.2555 21.7731 56.5228 21.6013 56.5228 20.8757C56.5228 20.1692 56.2746 19.9973 55.3963 19.9973H50.8518ZM71.8914 25.0001H60.912V12.2068H64.5018V21.7731H71.8914V25.0001ZM79.3001 25.191C74.832 25.191 72.7697 23.0334 72.7697 19.6345V12.2068H76.3595V19.3481C76.3595 21.1621 76.8751 21.7158 79.3001 21.7158C81.7251 21.7158 82.2406 21.1621 82.2406 19.3481V12.2068H85.8304V19.6345C85.8304 23.0334 83.7682 25.191 79.3001 25.191ZM90.4957 25.0001H86.906V12.2068H94.3719C97.7516 12.2068 99.5274 13.6198 99.5274 16.1211C99.5274 18.1452 98.5154 19.3481 96.0713 19.6536V19.8446C97.3889 20.1883 97.8089 20.8184 98.2863 21.7922L99.8711 25.0001H95.7276L94.2001 21.8686C93.7418 20.9139 93.3599 20.6465 91.966 20.6465H90.4957V25.0001ZM90.4957 15.4337V17.9733H94.3337C95.3839 17.9733 95.7658 17.7824 95.7658 16.694C95.7658 15.682 95.3839 15.4337 94.3337 15.4337H90.4957ZM111.805 25.0001H100.444V12.2068H111.805V15.4337H104.033V16.9613H111.519V20.1692H104.033V21.7731H111.805V25.0001ZM116.415 25.0001H112.825V12.2068H117.694L120.043 17.515L121.303 20.8184H121.551L122.754 17.515L124.988 12.2068H129.858V25.0001H126.268V19.7109L126.401 17.5723H126.153L125.428 19.7109L123.518 24.2363H119.165L117.255 19.7109L116.53 17.5723H116.281L116.415 19.7109V25.0001ZM134.596 25.0001H131.006V12.2068H134.596V25.0001ZM143.571 25.0001H139.981V15.4337H135.456V12.2068H148.078V15.4337H143.571V25.0001Z" fill="black"/>
<path d="M153.604 25.0001H148.945V21.3339H153.604V25.0001Z" fill="#C29853"/>
</svg>
