<svg width="137" height="29" viewBox="0 0 137 29" fill="none" xmlns="http://www.w3.org/2000/svg">
<path d="M3.9 17.6C1.57 17.6 0.2 16.24 0.2 14.15C0.2 12.06 1.57 10.7 3.9 10.7C6.15 10.7 7.5 11.77 7.5 13.56V13.73H5.4V13.56C5.4 12.8 5.04 12.5 3.93 12.5C2.57 12.5 2.2 12.82 2.2 14.15C2.2 15.48 2.57 15.8 3.93 15.8C5.04 15.8 5.4 15.5 5.4 14.74V14.57H7.5V14.74C7.5 16.53 6.15 17.6 3.9 17.6ZM14.7053 17.5H12.5953L15.4853 10.8H18.1753L21.0753 17.5H18.9153L18.4053 16.26H15.2253L14.7053 17.5ZM16.3253 13.63L15.9353 14.57H17.7153L17.3253 13.63L16.8853 12.5H16.7553L16.3253 13.63ZM28.1566 17.5H26.2766V10.8H30.1866C31.9566 10.8 32.8866 11.54 32.8866 12.85C32.8866 13.91 32.3566 14.54 31.0766 14.7V14.8C31.7666 14.98 31.9866 15.31 32.2366 15.82L33.0666 17.5H30.8966L30.0966 15.86C29.8566 15.36 29.6566 15.22 28.9266 15.22H28.1566V17.5ZM28.1566 12.49V13.82H30.1666C30.7166 13.82 30.9166 13.72 30.9166 13.15C30.9166 12.62 30.7166 12.49 30.1666 12.49H28.1566ZM44.3164 17.5H38.3664V10.8H44.3164V12.49H40.2464V13.29H44.1664V14.97H40.2464V15.81H44.3164V17.5ZM53.0908 17.6C50.9808 17.6 49.7508 16.24 49.7508 14.15C49.7508 12.06 51.1908 10.7 53.6308 10.7C55.9008 10.7 57.2508 11.7 57.2508 13.36V13.43H55.1508V13.36C55.1508 12.74 54.7708 12.5 53.5808 12.5C52.1408 12.5 51.7508 12.82 51.7508 14.15C51.7508 15.48 52.1208 15.8 53.4808 15.8C54.8708 15.8 55.2708 15.73 55.3608 15.22H53.3008V13.84H57.2608V17.5H55.5108V16.07H55.4108C55.2308 16.85 54.6608 17.6 53.0908 17.6ZM64.6995 17.5H62.8195V10.8H64.6995V17.5ZM75.29 17.5H72.59L69.9 10.8H72.17L73.9 15.6H74.03L75.72 10.8H77.98L75.29 17.5ZM89.1309 17.5H83.1809V10.8H89.1309V12.49H85.0609V13.29H88.9809V14.97H85.0609V15.81H89.1309V17.5ZM96.5452 17.5H94.6652V10.8H98.5752C100.345 10.8 101.275 11.54 101.275 12.85C101.275 13.91 100.745 14.54 99.4652 14.7V14.8C100.155 14.98 100.375 15.31 100.625 15.82L101.455 17.5H99.2852L98.4852 15.86C98.2452 15.36 98.0452 15.22 97.3152 15.22H96.5452V17.5ZM96.5452 12.49V13.82H98.5552C99.1052 13.82 99.3052 13.72 99.3052 13.15C99.3052 12.62 99.1052 12.49 98.5552 12.49H96.5452ZM110.005 17.6C107.955 17.6 106.705 16.87 106.705 15.17V15.11H108.585V15.32C108.585 15.77 108.745 15.89 110.005 15.89C111.145 15.89 111.265 15.8 111.265 15.5C111.265 15.26 111.135 15.16 110.585 15.09L108.485 14.81C107.235 14.64 106.605 13.97 106.605 12.89C106.605 11.82 107.435 10.7 109.855 10.7C111.985 10.7 113.005 11.63 113.005 13.13V13.19H111.125V13.04C111.125 12.56 110.915 12.4 109.655 12.4C108.695 12.4 108.485 12.53 108.485 12.82C108.485 13.03 108.605 13.13 108.965 13.18L111.065 13.49C112.705 13.73 113.145 14.57 113.145 15.43C113.145 16.58 112.265 17.6 110.005 17.6Z" fill="#FAFCFD"/>
<rect x="118" y="8" width="19" height="13" rx="2" fill="#46FFA6"/>
<path d="M123.33 17H122.28V12.31H123.4L125.08 14.529L125.724 15.516H125.801L125.752 14.571V12.31H126.802V17H125.682L123.953 14.76L123.358 13.878H123.288L123.33 14.739V17ZM129.571 17.07C128.136 17.07 127.254 16.118 127.254 14.655C127.254 13.192 128.248 12.24 129.858 12.24C131.328 12.24 132.259 12.926 132.259 14.053V14.109H131.09V14.053C131.09 13.507 130.733 13.248 129.83 13.248C128.766 13.248 128.367 13.612 128.367 14.655C128.367 15.698 128.752 16.062 129.781 16.062C130.859 16.062 131.188 15.894 131.216 15.299H129.627V14.522H132.266V17H131.293V15.992H131.237C131.076 16.608 130.586 17.07 129.571 17.07Z" fill="#171717"/>
</svg>
