<svg width="295" height="82" viewBox="0 0 295 82" fill="none" xmlns="http://www.w3.org/2000/svg">
<path fill-rule="evenodd" clip-rule="evenodd" d="M49.092 41C49.092 49.3347 42.3338 56.0925 33.9985 56.0925C25.6632 56.0925 18.905 49.3347 18.905 41C18.905 38.3797 19.5736 35.9152 20.749 33.7656L13.3191 28.8127C11.2083 32.3835 10 36.5508 10 41C10 54.2546 20.746 64.9998 34.0015 64.9998C47.257 64.9998 58.003 54.2546 58.003 41C58.003 36.4939 56.7617 32.2785 54.5999 28.6748L47.335 33.9245C48.4564 36.0352 49.092 38.4426 49.092 41Z" fill="#F58634"/>
<path fill-rule="evenodd" clip-rule="evenodd" d="M51.8833 24.9929C47.4878 20.088 41.1044 17 34.0013 17C26.7754 17 20.2931 20.193 15.8945 25.2478L23.3124 30.3476C26.0438 27.6043 29.8247 25.9074 34.0043 25.9074C38.3519 25.9074 42.2677 27.7452 45.0231 30.6833L51.8893 24.9929H51.8833Z" fill="#2A2F4B"/>
<path fill-rule="evenodd" clip-rule="evenodd" d="M38.9635 32.5839V26.7436C37.4104 26.204 35.7403 25.9102 34.0013 25.9102C32.5142 25.9102 31.078 26.126 29.7197 26.5248V37.207L38.9635 32.5869V32.5839Z" fill="#2A2F4B" stroke="#2A2F4B" stroke-width="0.667029" stroke-miterlimit="2.61313"/>
<path fill-rule="evenodd" clip-rule="evenodd" d="M38.9635 49.8529V38.8828L29.7197 43.5029V49.8529C29.7197 50.6834 30.3973 51.3609 31.2279 51.3609H37.4554C38.2859 51.3609 38.9635 50.6834 38.9635 49.8529Z" fill="#2A2F4B"/>
<path fill-rule="evenodd" clip-rule="evenodd" d="M29.7197 41.7855L38.9635 37.1654V33.9814L29.7197 38.6015V41.7855Z" fill="#F58634" stroke="#F58634" stroke-width="0.667029" stroke-miterlimit="2.61313"/>
<path d="M96.3352 41.9091C96.3352 44.7642 95.794 47.1932 94.7116 49.196C93.6378 51.1989 92.1719 52.7287 90.3139 53.7855C88.4645 54.8338 86.3849 55.358 84.0753 55.358C81.7486 55.358 79.6605 54.8295 77.8111 53.7727C75.9616 52.7159 74.5 51.1861 73.4261 49.1832C72.3523 47.1804 71.8153 44.7557 71.8153 41.9091C71.8153 39.054 72.3523 36.625 73.4261 34.6222C74.5 32.6193 75.9616 31.0937 77.8111 30.0455C79.6605 28.9886 81.7486 28.4602 84.0753 28.4602C86.3849 28.4602 88.4645 28.9886 90.3139 30.0455C92.1719 31.0937 93.6378 32.6193 94.7116 34.6222C95.794 36.625 96.3352 39.054 96.3352 41.9091ZM90.723 41.9091C90.723 40.0597 90.446 38.5 89.892 37.2301C89.3466 35.9602 88.5753 34.9972 87.5781 34.3409C86.581 33.6847 85.4134 33.3565 84.0753 33.3565C82.7372 33.3565 81.5696 33.6847 80.5724 34.3409C79.5753 34.9972 78.7997 35.9602 78.2457 37.2301C77.7003 38.5 77.4276 40.0597 77.4276 41.9091C77.4276 43.7585 77.7003 45.3182 78.2457 46.5881C78.7997 47.858 79.5753 48.821 80.5724 49.4773C81.5696 50.1335 82.7372 50.4616 84.0753 50.4616C85.4134 50.4616 86.581 50.1335 87.5781 49.4773C88.5753 48.821 89.3466 47.858 89.892 46.5881C90.446 45.3182 90.723 43.7585 90.723 41.9091ZM98.2433 33.3821V28.8182H119.746V33.3821H111.73V55H106.259V33.3821H98.2433ZM123.287 55V28.8182H140.929V33.3821H128.823V39.6207H140.022V44.1847H128.823V50.4361H140.98V55H123.287ZM168.431 37.9844H162.832C162.729 37.2599 162.521 36.6165 162.205 36.054C161.89 35.483 161.485 34.9972 160.991 34.5966C160.496 34.196 159.925 33.8892 159.278 33.6761C158.638 33.4631 157.944 33.3565 157.194 33.3565C155.839 33.3565 154.658 33.6932 153.653 34.3665C152.647 35.0312 151.867 36.0028 151.313 37.2812C150.759 38.5511 150.482 40.0937 150.482 41.9091C150.482 43.7756 150.759 45.3437 151.313 46.6136C151.876 47.8835 152.66 48.8423 153.665 49.4901C154.671 50.1378 155.835 50.4616 157.156 50.4616C157.897 50.4616 158.583 50.3636 159.214 50.1676C159.853 49.9716 160.42 49.6861 160.914 49.3111C161.408 48.9276 161.817 48.4631 162.141 47.9176C162.474 47.3722 162.704 46.75 162.832 46.0511L168.431 46.0767C168.286 47.2784 167.924 48.4375 167.344 49.554C166.773 50.6619 166.002 51.6548 165.031 52.5327C164.067 53.402 162.917 54.0923 161.579 54.6037C160.249 55.1065 158.745 55.358 157.066 55.358C154.731 55.358 152.643 54.8295 150.802 53.7727C148.969 52.7159 147.521 51.1861 146.455 49.1832C145.398 47.1804 144.87 44.7557 144.87 41.9091C144.87 39.054 145.407 36.625 146.481 34.6222C147.555 32.6193 149.012 31.0937 150.853 30.0455C152.694 28.9886 154.765 28.4602 157.066 28.4602C158.583 28.4602 159.989 28.6733 161.285 29.0994C162.589 29.5256 163.744 30.1477 164.749 30.9659C165.755 31.7756 166.573 32.7685 167.204 33.9446C167.843 35.1207 168.252 36.4673 168.431 37.9844ZM172.401 55V28.8182H177.936V39.6207H189.173V28.8182H194.696V55H189.173V44.1847H177.936V55H172.401ZM207.592 28.8182H214.419L221.629 46.4091H221.936L229.146 28.8182H235.973V55H230.603V37.9588H230.386L223.61 54.8722H219.954L213.179 37.8949H212.961V55H207.592V28.8182ZM240.533 55V28.8182H257.869V33.3821H246.069V39.6207H256.718V44.1847H246.069V55H240.533ZM261.592 55V28.8182H272.075C274.001 28.8182 275.608 29.1037 276.895 29.6747C278.181 30.2457 279.149 31.0384 279.797 32.0526C280.444 33.0582 280.768 34.2173 280.768 35.5298C280.768 36.5526 280.564 37.4517 280.154 38.2273C279.745 38.9943 279.183 39.625 278.467 40.1193C277.76 40.6051 276.95 40.9503 276.038 41.1548V41.4105C277.035 41.4531 277.968 41.7344 278.838 42.2543C279.716 42.7741 280.427 43.5028 280.973 44.4403C281.518 45.3693 281.791 46.4773 281.791 47.7642C281.791 49.1534 281.446 50.3935 280.755 51.4844C280.074 52.5668 279.064 53.4233 277.725 54.054C276.387 54.6847 274.738 55 272.778 55H261.592ZM267.127 50.4744H271.64C273.183 50.4744 274.308 50.1804 275.015 49.5923C275.723 48.9957 276.076 48.2031 276.076 47.2145C276.076 46.4901 275.902 45.8509 275.552 45.2969C275.203 44.7429 274.704 44.3082 274.056 43.9929C273.417 43.6776 272.654 43.5199 271.768 43.5199H267.127V50.4744ZM267.127 39.7741H271.231C271.99 39.7741 272.663 39.642 273.251 39.3778C273.848 39.1051 274.316 38.7216 274.657 38.2273C275.007 37.733 275.181 37.1406 275.181 36.4503C275.181 35.5043 274.845 34.7415 274.172 34.1619C273.507 33.5824 272.561 33.2926 271.333 33.2926H267.127V39.7741Z" fill="#2A2F4B"/>
</svg>
