<svg width="118" height="30" viewBox="0 0 118 30" fill="none" xmlns="http://www.w3.org/2000/svg">
<g clip-path="url(#clip0_2284_8905)">
<path d="M46.2334 11.3005H49.9269V22.9181H46.2334V11.3005Z" fill="#99A1AF"/>
<mask id="mask0_2284_8905" style="mask-type:luminance" maskUnits="userSpaceOnUse" x="0" y="0" width="118" height="30">
<path d="M0.170898 0.985481H117.106V29.6022H0.170898V0.985481Z" fill="white"/>
</mask>
<g mask="url(#mask0_2284_8905)">
<path d="M50.6987 11.3005H54.2562V12.8889H54.3241C55.1851 11.6408 56.2954 10.9602 57.9043 10.9602C60.442 10.9602 61.9374 12.7754 61.9374 15.3621V22.9181H58.2441V16.111C58.2441 14.8856 57.6323 14.046 56.4314 14.046C55.2079 14.046 54.3921 15.0672 54.3921 16.4966V22.9181H50.6987V11.3005Z" fill="#99A1AF"/>
<path d="M50.2967 8.19253C50.2967 6.96716 49.3047 5.97394 48.0812 5.97394C46.8577 5.97394 45.8657 6.96716 45.8657 8.19253C45.8657 9.41778 46.8577 10.411 48.0812 10.411C49.3047 10.411 50.2967 9.41778 50.2967 8.19253Z" fill="#99A1AF"/>
<path d="M87.9145 11.1328C87.8091 11.1233 87.6883 11.1191 87.5469 11.1191C86.1421 11.1191 85.1905 11.7317 84.3747 13.1158H84.3068V11.3006H80.772V22.9181H84.4653V17.6993C84.4653 15.2812 85.8026 14.1607 87.9145 14.3562V11.1328Z" fill="#99A1AF"/>
<path d="M106.039 15.589C104.567 15.3168 103.252 15.2033 103.252 14.3865C103.252 13.6603 103.955 13.32 104.861 13.32C105.881 13.32 106.583 13.6376 106.719 14.6815H110.118C109.937 12.3897 108.169 10.9602 104.884 10.9602C102.142 10.9602 99.8762 12.2308 99.8762 14.6815C99.8762 17.4042 102.029 17.9488 104.045 18.2892C105.586 18.5615 106.991 18.675 106.991 19.7187C106.991 20.4675 106.289 20.876 105.178 20.876C104.064 20.876 103.328 20.404 103.102 19.4465H99.5825C99.8415 21.8347 101.935 23.2811 105.201 23.2811C108.237 23.2811 110.48 21.9651 110.48 19.4238C110.48 16.4512 108.079 15.9294 106.039 15.589Z" fill="#99A1AF"/>
<path d="M93.6459 13.5919C94.8468 13.5919 95.7078 14.4769 95.8438 15.8611H91.2667C91.5159 14.4769 92.2411 13.5919 93.6459 13.5919ZM93.8498 20.6032C92.3316 20.6032 91.4707 19.6276 91.244 18.062H99.5825C99.6052 15.7022 98.9255 13.6827 97.5432 12.4121C96.5462 11.5045 95.232 10.9599 93.5778 10.9599C90.0431 10.9599 87.6187 13.6146 87.6187 17.0864C87.6187 20.6032 89.9752 23.2582 93.8045 23.2582C95.2772 23.2582 96.4556 22.8724 97.4299 22.1917C98.4495 21.4883 99.1293 20.4899 99.3785 19.4462H95.7758C95.4585 20.1723 94.8242 20.6032 93.8498 20.6032Z" fill="#99A1AF"/>
<path d="M116.987 20.1782C116.816 20.185 116.586 20.1949 116.375 20.1949C115.582 20.1949 115.084 19.9679 115.084 19.0603V13.6146H116.987V11.3002H115.084V7.62429H111.481V11.3002H110.347V13.6146H111.481V19.8545C111.481 22.3505 113.022 23.0538 115.174 23.0538C115.995 23.0538 116.616 22.9922 116.987 22.9198V20.1782Z" fill="#99A1AF"/>
<path d="M68.5343 20.1837C68.387 20.1894 68.2169 20.1952 68.058 20.1952C67.2651 20.1952 66.7665 19.9682 66.7665 19.0606V13.6148H68.5343V11.3004H66.7665V7.62453H63.1638V11.3004H61.9624V13.6148H63.1638V19.8547C63.1638 22.3508 64.7045 23.0541 66.8571 23.0541C67.5855 23.0541 68.1557 23.0055 68.5343 22.9441V20.1837Z" fill="#99A1AF"/>
<path d="M76.5791 15.8611C76.4432 14.477 75.582 13.5919 74.3811 13.5919C72.9763 13.5919 72.2513 14.477 72.002 15.8611H76.5791ZM68.354 17.0864C68.354 13.6147 70.7784 10.96 74.3132 10.96C75.9673 10.96 77.2816 11.5045 78.2785 12.4121C79.6607 13.6828 80.3404 15.7022 80.3178 18.0621H71.9795C72.2059 19.6276 73.067 20.6034 74.5852 20.6034C75.5594 20.6034 76.1939 20.1723 76.511 19.4462H80.1138C79.8645 20.4899 79.1849 21.4883 78.1651 22.1918C77.1909 22.8724 76.0126 23.2582 74.5398 23.2582C70.7104 23.2582 68.354 20.6034 68.354 17.0864Z" fill="#99A1AF"/>
<path d="M39.8212 14.3184C41.2714 14.3184 42.0871 13.4562 42.0871 12.1627C42.0871 10.8694 41.2487 10.0753 39.8212 10.0753H36.9887V14.3184H39.8212ZM33.2495 6.69437H39.6632C41.6344 6.69437 43.0847 7.23889 44.0816 8.19194C45.124 9.16754 45.7131 10.5518 45.7131 12.1855C45.7131 15.294 43.5605 17.4951 40.2296 17.4951H36.9887V22.9181H33.2495V6.69437Z" fill="#99A1AF"/>
<path d="M28.1794 15.2939C28.1794 23.006 21.9362 29.2579 14.235 29.2579C6.53371 29.2579 0.290527 23.006 0.290527 15.2939C0.290527 7.58171 6.53371 1.32988 14.235 1.32988C21.9362 1.32988 28.1794 7.58171 28.1794 15.2939Z" fill="#030712"/>
<path d="M14.235 1.32988C6.53371 1.32988 0.290527 7.58182 0.290527 15.2939C0.290527 21.2098 3.96604 26.267 9.15326 28.3017C9.03141 27.1968 8.92122 25.4977 9.20161 24.2916C9.45503 23.2017 10.8368 17.3505 10.8368 17.3505C10.8368 17.3505 10.4197 16.514 10.4197 15.2773C10.4197 13.3356 11.5435 11.886 12.9429 11.886C14.1326 11.886 14.7072 12.7804 14.7072 13.853C14.7072 15.0511 13.9454 16.8424 13.5523 18.5024C13.2238 19.8923 14.2484 21.0257 15.6173 21.0257C18.0957 21.0257 20.0008 18.4088 20.0008 14.6313C20.0008 11.2878 17.6018 8.95016 14.1761 8.95016C10.2084 8.95016 7.87955 11.9303 7.87955 15.0101C7.87955 16.2103 8.34123 17.4973 8.91733 18.1969C9.0313 18.3352 9.04799 18.4563 9.01404 18.5974C8.90819 19.0385 8.67295 19.9869 8.62677 20.1811C8.56596 20.4367 8.42467 20.4909 8.1604 20.3678C6.41883 19.556 5.32995 17.0061 5.32995 14.9581C5.32995 10.5532 8.52595 6.50778 14.5436 6.50778C19.3809 6.50778 23.1401 9.95964 23.1401 14.5728C23.1401 19.3853 20.11 23.2584 15.9042 23.2584C14.4911 23.2584 13.1628 22.5233 12.7081 21.6549C12.7081 21.6549 12.0089 24.3211 11.8393 24.9745C11.5245 26.1874 10.6747 27.7077 10.1062 28.6352C11.4109 29.0398 12.7975 29.2579 14.235 29.2579C21.9364 29.2579 28.1795 23.006 28.1795 15.2939C28.1795 7.58182 21.9364 1.32988 14.235 1.32988Z" fill="#99A1AF"/>
</g>
</g>
<defs>
<clipPath id="clip0_2284_8905">
<rect width="116.935" height="28.6167" fill="white" transform="translate(0.166992 0.985474)"/>
</clipPath>
</defs>
</svg>
