<svg width="153" height="54" viewBox="0 0 153 54" fill="none" xmlns="http://www.w3.org/2000/svg">
<path fill-rule="evenodd" clip-rule="evenodd" d="M20.2671 6.73242C31.4603 6.73242 40.5342 15.8063 40.5342 26.9995C40.5342 31.2634 39.2174 35.2197 36.9684 38.4841L33.9121 35.7351L33.9083 35.7398L29.8221 31.6537C29.3071 31.1386 28.7326 30.8018 28.0987 30.6434C27.4912 30.4849 26.877 30.4915 26.2563 30.6632C25.662 30.8349 25.1337 31.1518 24.6715 31.6141C24.2093 32.0763 23.8857 32.6112 23.7008 33.2187C23.5424 33.8262 23.5357 34.4403 23.681 35.061C23.8527 35.6817 24.1961 36.2496 24.7111 36.7647L29.3794 41.4329C29.3799 41.4326 29.3804 41.4322 29.3809 41.4319L31.7611 43.6943C28.4949 45.9473 24.5351 47.2667 20.2671 47.2667C9.07388 47.2666 0 38.1927 0 26.9995C1.71992e-06 22.8165 1.2673 18.9296 3.43881 15.7015L6.40286 18.4563L10.5167 22.5702C11.0317 23.0852 11.5996 23.4286 12.2203 23.6003C12.841 23.7456 13.4552 23.7389 14.0627 23.5805C14.6702 23.3956 15.2051 23.072 15.6673 22.6098C16.1295 22.1476 16.4465 21.6193 16.6182 21.025C16.7898 20.4043 16.7965 19.7902 16.638 19.1827C16.4795 18.5488 16.1427 17.9743 15.6277 17.4592L10.8993 12.7309C10.8969 12.7324 10.8945 12.734 10.8921 12.7356L8.57375 10.444C11.8776 8.10621 15.9119 6.73242 20.2671 6.73242ZM20.2671 9.93248C18.0122 9.93248 15.8594 10.3698 13.889 11.1642L17.9256 15.2009C18.784 16.0593 19.3585 17.03 19.6491 18.1129C19.9396 19.1959 19.9198 20.2986 19.5897 21.4212C19.2463 22.5306 18.5859 23.5739 17.6087 24.5512C16.6314 25.5285 15.588 26.1888 14.4787 26.5322C13.3561 26.8623 12.2534 26.8821 11.1704 26.5916C10.0875 26.301 9.1168 25.7266 8.25837 24.8681L4.31345 20.9232C3.59406 22.8109 3.20006 24.8592 3.20006 26.9995L3.20041 27.1099C3.2141 29.2716 3.62972 31.3379 4.37619 33.2379L8.25837 29.3557C9.1168 28.4973 10.0875 27.9228 11.1704 27.6322C12.2534 27.3417 13.3561 27.3615 14.4787 27.6917C15.588 28.0351 16.6314 28.6954 17.6087 29.6727C18.586 30.65 19.2463 31.6933 19.5897 32.8027C19.9198 33.9252 19.9396 35.028 19.6491 36.1109C19.3586 37.1939 18.7841 38.1646 17.9256 39.023L14.0498 42.8988C15.944 43.64 18.0031 44.0526 20.1567 44.0662L20.2671 44.0666C22.4074 44.0666 24.4556 43.6725 26.3433 42.9531L22.4132 39.023C21.5548 38.1645 20.9803 37.1939 20.6897 36.1109C20.3992 35.028 20.419 33.9252 20.7492 32.8027C21.0925 31.6933 21.7529 30.65 22.7302 29.6727C23.7075 28.6954 24.7508 28.0351 25.8601 27.6917C26.9827 27.3615 28.0854 27.3417 29.1684 27.6322C30.2513 27.9228 31.222 28.4973 32.0805 29.3557L36.1023 33.3776C36.8838 31.4393 37.3198 29.3247 37.3338 27.1099L37.3341 26.9995C37.3341 24.8058 36.9202 22.7088 36.1663 20.7823L32.0805 24.8681C31.222 25.7265 30.2513 26.301 29.1684 26.5916C28.0854 26.8821 26.9827 26.8623 25.8601 26.5321C24.7508 26.1888 23.7075 25.5284 22.7302 24.5511C21.7529 23.5739 21.0925 22.5305 20.7492 21.4212C20.419 20.2986 20.3992 19.1959 20.6897 18.1129C20.9803 17.03 21.5548 16.0593 22.4132 15.2008L26.5054 11.1085C24.6054 10.3621 22.5391 9.94652 20.3775 9.93283L20.2671 9.93248ZM14.0825 30.6632C13.4618 30.4915 12.8477 30.4849 12.2402 30.6434C11.6062 30.8018 11.0318 31.1386 10.5167 31.6537L5.92139 36.249C7.24253 38.2938 8.98893 40.0381 11.0355 41.3568L15.6277 36.7647C16.1427 36.2496 16.4861 35.6817 16.6578 35.061C16.8031 34.4403 16.7965 33.8262 16.638 33.2187C16.4531 32.6112 16.1295 32.0763 15.6673 31.6141C15.2051 31.1518 14.6768 30.8349 14.0825 30.6632ZM24.7112 17.4592C24.1961 17.9742 23.8593 18.5487 23.7008 19.1827C23.5424 19.7902 23.549 20.4043 23.7207 21.025C23.8924 21.6193 24.2093 22.1475 24.6716 22.6098C25.1338 23.072 25.6686 23.3956 26.2762 23.5805C26.8837 23.7389 27.4978 23.7455 28.1185 23.6003C28.7392 23.4286 29.3071 23.0852 29.8221 22.5701L34.6243 17.7679C33.3056 15.7214 31.5614 13.9749 29.5165 12.6537L24.7112 17.4592Z" fill="#47CD63"/>
<path d="M20.2726 28.8993C20.0087 28.8993 19.7604 28.8507 19.5278 28.7534C19.2987 28.6562 19.0973 28.5208 18.9237 28.3472C18.7501 28.1701 18.6129 27.967 18.5123 27.7379C18.415 27.5087 18.3664 27.2622 18.3664 26.9983C18.3664 26.731 18.415 26.4828 18.5123 26.2536C18.6129 26.0244 18.7501 25.8231 18.9237 25.6495C19.0973 25.4724 19.2987 25.3353 19.5278 25.238C19.7604 25.1408 20.0087 25.0922 20.2726 25.0922C20.5364 25.0922 20.7829 25.1408 21.0121 25.238C21.2412 25.3353 21.4426 25.4724 21.6162 25.6495C21.7933 25.8231 21.9304 26.0244 22.0277 26.2536C22.1283 26.4828 22.1787 26.731 22.1787 26.9983C22.1787 27.2622 22.1283 27.5087 22.0277 27.7379C21.9304 27.967 21.7933 28.1701 21.6162 28.3472C21.4426 28.5208 21.2412 28.6562 21.0121 28.7534C20.7829 28.8507 20.5364 28.8993 20.2726 28.8993ZM20.2726 28.592C20.4948 28.592 20.7013 28.5521 20.8923 28.4722C21.0867 28.3889 21.2551 28.2743 21.3975 28.1285C21.5433 27.9827 21.6579 27.8125 21.7412 27.6181C21.8245 27.4237 21.8662 27.2153 21.8662 26.9931C21.8662 26.7709 21.8245 26.5643 21.7412 26.3734C21.6579 26.179 21.5433 26.0106 21.3975 25.8682C21.2551 25.7224 21.0867 25.6078 20.8923 25.5245C20.7013 25.4412 20.4948 25.3995 20.2726 25.3995C20.0504 25.3995 19.842 25.4412 19.6476 25.5245C19.4566 25.6078 19.2865 25.7224 19.1372 25.8682C18.9914 26.0106 18.8768 26.179 18.7935 26.3734C18.7136 26.5643 18.6737 26.7709 18.6737 26.9931C18.6737 27.2153 18.7154 27.4237 18.7987 27.6181C18.882 27.8125 18.9966 27.9827 19.1424 28.1285C19.2882 28.2743 19.4566 28.3889 19.6476 28.4722C19.842 28.5521 20.0504 28.592 20.2726 28.592ZM19.533 27.9879V26.014H20.408C20.533 26.014 20.6475 26.0435 20.7517 26.1026C20.8559 26.1581 20.9392 26.2362 21.0017 26.3369C21.0642 26.4376 21.0954 26.5522 21.0954 26.6807C21.0954 26.8056 21.0624 26.922 20.9965 27.0296C20.934 27.1338 20.8454 27.2136 20.7309 27.2692L20.934 27.6129C20.9444 27.6268 20.9565 27.6389 20.9704 27.6493C20.9843 27.6598 21.0017 27.665 21.0225 27.665H21.1944V27.9879H20.9548C20.8784 27.9879 20.809 27.9688 20.7465 27.9306C20.6875 27.8924 20.6389 27.8438 20.6007 27.7847L20.3611 27.3629H19.9236V27.9879H19.533ZM19.9236 27.014H20.3663C20.4566 27.014 20.5347 26.9862 20.6007 26.9306C20.6666 26.8716 20.6996 26.7866 20.6996 26.6754C20.6996 26.5852 20.6666 26.5123 20.6007 26.4567C20.5347 26.3977 20.4566 26.3682 20.3663 26.3682H19.9236V27.014Z" fill="#47CD63"/>
<path d="M49.0437 36V32.2229H57.1104C57.4701 32.2229 57.7938 32.133 58.0816 31.9532C58.3694 31.7733 58.5942 31.5395 58.7561 31.2517C58.936 30.9639 59.0259 30.6492 59.0259 30.3074C59.0259 29.9477 58.936 29.624 58.7561 29.3362C58.5942 29.0484 58.3694 28.8146 58.0816 28.6347C57.7938 28.4549 57.4701 28.365 57.1104 28.365H54.1967C53.0995 28.365 52.1013 28.1491 51.202 27.7175C50.3027 27.2858 49.5833 26.6563 49.0437 25.8289C48.5221 24.9836 48.2613 23.9764 48.2613 22.8073C48.2613 21.6562 48.5131 20.658 49.0167 19.8126C49.5203 18.9673 50.2038 18.3108 51.0671 17.8432C51.9304 17.3575 52.8837 17.1147 53.9269 17.1147H62.2634V20.8918H54.4395C54.1157 20.8918 53.8189 20.9727 53.5492 21.1346C53.2794 21.2965 53.0725 21.5123 52.9286 21.7821C52.7848 22.0519 52.7128 22.3487 52.7128 22.6724C52.7128 22.9961 52.7848 23.2929 52.9286 23.5627C53.0725 23.8145 53.2794 24.0213 53.5492 24.1832C53.8189 24.3451 54.1157 24.426 54.4395 24.426H57.4881C58.6931 24.426 59.7363 24.6598 60.6176 25.1275C61.5169 25.5771 62.2094 26.2156 62.695 27.043C63.1986 27.8524 63.4504 28.8056 63.4504 29.9028C63.4504 31.1977 63.1896 32.3039 62.668 33.2212C62.1644 34.1205 61.481 34.8129 60.6176 35.2985C59.7543 35.7662 58.8011 36 57.7579 36H49.0437ZM73.9145 36.3237C72.3497 36.3237 70.9558 36.009 69.7327 35.3795C68.5277 34.75 67.5834 33.8507 66.8999 32.6816C66.2165 31.5125 65.8747 30.1186 65.8747 28.4999V17.1147H70.3532V28.7427C70.3532 29.4441 70.4971 30.0826 70.7849 30.6582C71.0727 31.2157 71.4864 31.6654 72.0259 32.0071C72.5655 32.3309 73.195 32.4927 73.9145 32.4927C74.6519 32.4927 75.2814 32.3309 75.803 32.0071C76.3426 31.6654 76.7563 31.2157 77.044 30.6582C77.3318 30.0826 77.4757 29.4441 77.4757 28.7427V17.1147H81.9542V28.4999C81.9542 30.1186 81.6035 31.5125 80.902 32.6816C80.2186 33.8507 79.2743 34.75 78.0692 35.3795C76.8642 36.009 75.4792 36.3237 73.9145 36.3237ZM85.2439 36V32.2229H93.3106C93.6704 32.2229 93.9941 32.133 94.2819 31.9532C94.5697 31.7733 94.7945 31.5395 94.9564 31.2517C95.1362 30.9639 95.2262 30.6492 95.2262 30.3074C95.2262 29.9477 95.1362 29.624 94.9564 29.3362C94.7945 29.0484 94.5697 28.8146 94.2819 28.6347C93.9941 28.4549 93.6704 28.365 93.3106 28.365H90.3969C89.2998 28.365 88.3016 28.1491 87.4023 27.7175C86.503 27.2858 85.7835 26.6563 85.2439 25.8289C84.7223 24.9836 84.4616 23.9764 84.4616 22.8073C84.4616 21.6562 84.7134 20.658 85.217 19.8126C85.7206 18.9673 86.404 18.3108 87.2674 17.8432C88.1307 17.3575 89.0839 17.1147 90.1271 17.1147H98.4636V20.8918H90.6397C90.316 20.8918 90.0192 20.9727 89.7494 21.1346C89.4796 21.2965 89.2728 21.5123 89.1289 21.7821C88.985 22.0519 88.9131 22.3487 88.9131 22.6724C88.9131 22.9961 88.985 23.2929 89.1289 23.5627C89.2728 23.8145 89.4796 24.0213 89.7494 24.1832C90.0192 24.3451 90.316 24.426 90.6397 24.426H93.6884C94.8934 24.426 95.9366 24.6598 96.8179 25.1275C97.7172 25.5771 98.4097 26.2156 98.8953 27.043C99.3989 27.8524 99.6507 28.8056 99.6507 29.9028C99.6507 31.1977 99.3899 32.3039 98.8683 33.2212C98.3647 34.1205 97.6812 34.8129 96.8179 35.2985C95.9546 35.7662 95.0013 36 93.9581 36H85.2439ZM115.457 36.3237C114.359 36.3237 113.352 36.0809 112.435 35.5953C111.536 35.1097 110.816 34.4352 110.277 33.5719C109.755 32.7086 109.494 31.6834 109.494 30.4963V22.2677C109.494 21.9799 109.422 21.7191 109.278 21.4853C109.135 21.2515 108.946 21.0627 108.712 20.9188C108.478 20.7749 108.217 20.7029 107.929 20.7029C107.642 20.7029 107.381 20.7749 107.147 20.9188C106.913 21.0627 106.724 21.2515 106.58 21.4853C106.455 21.7191 106.392 21.9799 106.392 22.2677V36H101.967V22.5915C101.967 21.4583 102.219 20.4601 102.723 19.5968C103.244 18.7335 103.955 18.05 104.854 17.5464C105.771 17.0428 106.796 16.791 107.929 16.791C109.081 16.791 110.106 17.0428 111.005 17.5464C111.904 18.05 112.615 18.7335 113.136 19.5968C113.658 20.4601 113.919 21.4583 113.919 22.5915V30.82C113.919 31.1258 113.991 31.3956 114.135 31.6294C114.278 31.8632 114.458 32.0521 114.674 32.196C114.908 32.3219 115.16 32.3848 115.43 32.3848C115.717 32.3848 115.978 32.3219 116.212 32.196C116.464 32.0521 116.662 31.8632 116.806 31.6294C116.949 31.3956 117.021 31.1258 117.021 30.82V22.5915C117.021 21.4583 117.282 20.4601 117.804 19.5968C118.325 18.7335 119.036 18.05 119.935 17.5464C120.852 17.0428 121.869 16.791 122.984 16.791C124.135 16.791 125.151 17.0428 126.032 17.5464C126.932 18.05 127.642 18.7335 128.164 19.5968C128.685 20.4601 128.946 21.4583 128.946 22.5915V36H124.522V22.2407C124.522 21.953 124.45 21.7012 124.306 21.4853C124.18 21.2515 124 21.0627 123.766 20.9188C123.532 20.7749 123.271 20.7029 122.984 20.7029C122.714 20.7029 122.453 20.7749 122.201 20.9188C121.967 21.0627 121.779 21.2515 121.635 21.4853C121.491 21.7012 121.419 21.953 121.419 22.2407V30.4963C121.419 31.6834 121.149 32.7086 120.61 33.5719C120.07 34.4352 119.351 35.1097 118.451 35.5953C117.552 36.0809 116.554 36.3237 115.457 36.3237Z" fill="white"/>
<path d="M141.205 36.3507C139.694 36.3507 138.327 36.0989 137.104 35.5953C135.881 35.0917 134.829 34.3903 133.948 33.491C133.067 32.5917 132.383 31.5485 131.898 30.3614C131.43 29.1743 131.196 27.8973 131.196 26.5304C131.196 25.1635 131.43 23.8865 131.898 22.6994C132.383 21.5123 133.058 20.4781 133.921 19.5968C134.802 18.6975 135.854 18.005 137.077 17.5194C138.318 17.0158 139.694 16.764 141.205 16.764C142.698 16.764 144.056 17.0158 145.279 17.5194C146.52 18.005 147.572 18.6975 148.436 19.5968C149.317 20.4781 150 21.5213 150.486 22.7264C150.972 23.9134 151.214 25.1814 151.214 26.5304C151.214 27.8973 150.972 29.1743 150.486 30.3614C150 31.5485 149.317 32.5917 148.436 33.491C147.572 34.3903 146.52 35.0917 145.279 35.5953C144.056 36.0989 142.698 36.3507 141.205 36.3507ZM141.205 32.4927C141.997 32.4927 142.725 32.3488 143.391 32.0611C144.074 31.7553 144.659 31.3326 145.144 30.7931C145.63 30.2535 146.007 29.624 146.277 28.9045C146.547 28.1671 146.682 27.3757 146.682 26.5304C146.682 25.685 146.547 24.9027 146.277 24.1832C146.007 23.4638 145.63 22.8343 145.144 22.2947C144.659 21.7551 144.074 21.3414 143.391 21.0537C142.725 20.7479 141.997 20.595 141.205 20.595C140.396 20.595 139.658 20.7479 138.993 21.0537C138.327 21.3414 137.743 21.7551 137.239 22.2947C136.754 22.8343 136.376 23.4728 136.106 24.2102C135.854 24.9296 135.729 25.703 135.729 26.5304C135.729 27.3757 135.854 28.1671 136.106 28.9045C136.376 29.624 136.754 30.2535 137.239 30.7931C137.743 31.3326 138.327 31.7553 138.993 32.0611C139.658 32.3488 140.396 32.4927 141.205 32.4927Z" fill="#47CD63"/>
</svg>
