<svg width="127" height="42" viewBox="0 0 127 42" fill="none" xmlns="http://www.w3.org/2000/svg">
<path fill-rule="evenodd" clip-rule="evenodd" d="M30.351 0V20.0139H19.4185C18.0093 17.989 17.1924 15.5824 17.1924 13.0004C17.1924 6.1183 22.9962 0.481992 30.351 0Z" fill="#2F88FC"/>
<path fill-rule="evenodd" clip-rule="evenodd" d="M30.3503 4.43652V20.0145H20.3463C19.0569 18.4385 18.3096 16.5654 18.3096 14.5559C18.3096 9.19908 23.6203 4.81195 30.3503 4.43652Z" fill="#2F7BEF"/>
<path fill-rule="evenodd" clip-rule="evenodd" d="M30.3492 9.15234V20.3245H21.0682C19.8715 19.1941 19.1777 17.8506 19.1777 16.4092C19.1777 12.5678 24.105 9.42169 30.3492 9.15234Z" fill="#2F6FE3"/>
<path d="M28.1749 18.1554C29.5257 18.9879 30.4254 20.4629 30.1139 22.0187C28.7789 28.6844 22.3955 34.367 15.1981 34.367C7.09681 34.367 0.656923 28.3029 0.255202 20.3837C-0.124943 12.8899 -0.00641674 8.48576 0.138892 4.55272C0.155203 4.11124 0.218089 3.66502 0.424061 3.2742C0.457965 3.20987 0.49326 3.14825 0.530192 3.08931C1.06727 2.23216 2.2689 2.41576 3.17286 2.86965C9.91139 6.2532 21.8246 14.2413 28.1749 18.1554Z" fill="white"/>
<path d="M61.0842 7.35583H56.0702V19.6484C56.0702 23.5949 54.5174 25.5359 51.4766 25.5359C49.8268 25.5359 48.5652 25.0183 47.6918 23.9184C46.7861 22.8186 46.3655 21.3629 46.3655 19.519V7.35583H41.3515V20.1013C41.3515 23.3361 42.3219 25.827 44.2628 27.5738C46.2038 29.353 48.5976 30.2264 51.4766 30.2264C52.4471 30.2264 53.4176 30.1294 54.3233 29.903C55.2291 29.6765 56.0702 29.2883 56.9112 28.7707C57.7523 28.2532 58.464 27.6385 59.0786 26.8622C59.6609 26.1181 60.1461 25.18 60.5343 24.0478C60.8901 22.948 61.0842 21.6864 61.0842 20.2954V7.35583ZM64.3103 30H69.0008V6.38536H64.3103V30ZM70.6297 17.5457H73.8322V24.4037C73.8322 26.3122 74.3498 27.7679 75.4496 28.7384C76.5171 29.7089 77.9728 30.1941 79.7844 30.1941C81.9194 30.1941 83.6986 29.4824 85.0572 28.0591L83.1163 24.7271C82.1782 25.4712 81.2077 25.827 80.2373 25.827C79.5903 25.827 79.1697 25.6329 78.911 25.18C78.6522 24.7595 78.5228 24.0478 78.5228 23.0127V17.5457H83.6662V13.1786H78.5228V9.26441H73.8322V13.1786H70.6297V17.5457ZM86.3605 30H91.0511V19.1308C91.3746 17.9662 92.0216 17.384 93.0244 17.384C93.8008 17.384 94.286 17.6104 94.5448 18.0633L96.9386 14.3108C96.5181 13.7932 96.0652 13.4374 95.6123 13.211C95.1271 12.9845 94.4801 12.8551 93.639 12.8551C93.1214 12.8551 92.6039 12.9845 92.0863 13.1786C91.5687 13.3727 91.2452 13.5991 91.0511 13.8579V13.1786H86.3605V30ZM99.5884 18.8073C100.462 18.1927 101.238 17.7721 101.885 17.5457C102.532 17.3193 103.341 17.1899 104.247 17.1899C105.152 17.1899 105.864 17.384 106.317 17.7721C106.77 18.1603 106.964 18.7426 106.964 19.5837C106.188 19.3249 105.152 19.1631 103.923 19.1631C101.723 19.1631 99.9119 19.6484 98.4562 20.5541C97.0005 21.4923 96.2888 22.8833 96.2888 24.6948C96.2888 26.3769 96.8388 27.7032 97.971 28.706C99.0708 29.7089 100.559 30.1941 102.435 30.1941C103.406 30.1941 104.279 30.0323 105.12 29.6765C105.961 29.353 106.576 28.9325 106.964 28.4796V30H111.655V19.8101C111.655 17.6104 111.04 15.8959 109.843 14.6667C108.614 13.4374 106.932 12.8228 104.764 12.8228C101.465 12.8228 99.0061 13.6962 97.3564 15.4107L99.5884 18.8073ZM103.406 26.1505C102.694 26.1505 102.112 26.0211 101.723 25.7623C101.335 25.5035 101.141 25.1477 101.141 24.6948C101.141 23.5949 102.209 23.045 104.408 23.045C105.347 23.045 106.188 23.2067 106.964 23.4655V24.2419C106.673 24.7918 106.188 25.2447 105.541 25.6006C104.894 25.9887 104.182 26.1505 103.406 26.1505Z" fill="white"/>
<path d="M114.638 27.3797C114.638 28.1561 114.897 28.8031 115.479 29.353C116.061 29.9353 116.773 30.1941 117.679 30.1941C118.487 30.1941 119.199 29.9353 119.781 29.353C120.364 28.7707 120.655 28.1238 120.655 27.3797C120.655 26.7004 120.364 26.0858 119.781 25.5035C119.199 24.9212 118.487 24.6301 117.679 24.6301C116.773 24.6301 116.061 24.9212 115.479 25.4712C114.897 26.0534 114.638 26.6681 114.638 27.3797Z" fill="#2F6FE3"/>
<path d="M122.875 14.0489C124.657 14.0489 125.996 12.7089 125.996 10.9272C125.996 9.14555 124.657 7.80561 122.875 7.80561C121.093 7.80561 119.724 9.16028 119.724 10.9272C119.724 12.6942 121.078 14.0489 122.875 14.0489ZM122.875 13.4893C121.402 13.4893 120.327 12.3997 120.327 10.9272C120.327 9.45477 121.402 8.36515 122.875 8.36515C124.333 8.36515 125.407 9.45477 125.407 10.9272C125.407 12.3997 124.333 13.4893 122.875 13.4893ZM122.212 12.6353V11.369H123.052L123.714 12.6353H124.377L123.611 11.2217C124.068 11.045 124.318 10.6475 124.318 10.191C124.318 9.51367 123.802 9.1161 123.022 9.1161H121.609V12.6353H122.212ZM123.685 10.2352C123.685 10.6033 123.434 10.8242 123.007 10.8242H122.212V9.69036H123.007C123.449 9.69036 123.685 9.86706 123.685 10.2352Z" fill="white"/>
</svg>
